<svg width="19" height="19" viewBox="0 0 19 19" fill="none" xmlns="http://www.w3.org/2000/svg">
<path d="M18.8792 9.13046C18.7095 8.89826 14.6652 3.44507 9.49991 3.44507C4.33461 3.44507 0.290122 8.89827 0.120569 9.13024C-0.0401895 9.35052 -0.0401895 9.64929 0.120569 9.86957C0.290122 10.1018 4.33461 15.555 9.49991 15.555C14.6652 15.555 18.7095 10.1017 18.8792 9.86975C19.0402 9.64951 19.0402 9.35052 18.8792 9.13046ZM9.49991 14.3022C5.69511 14.3022 2.39976 10.6828 1.42426 9.49959C2.39849 8.31531 5.68695 4.69781 9.49991 4.69781C13.3045 4.69781 16.5996 8.31657 17.5756 9.50044C16.6013 10.6847 13.3129 14.3022 9.49991 14.3022Z" fill="#3C71FF"/>
<path d="M9.4999 5.74176C7.42763 5.74176 5.74164 7.42775 5.74164 9.50002C5.74164 11.5723 7.42763 13.2583 9.4999 13.2583C11.5722 13.2583 13.2582 11.5723 13.2582 9.50002C13.2582 7.42775 11.5722 5.74176 9.4999 5.74176ZM9.4999 12.0055C8.11831 12.0055 6.99442 10.8816 6.99442 9.50002C6.99442 8.11847 8.11835 6.99454 9.4999 6.99454C10.8814 6.99454 12.0054 8.11847 12.0054 9.50002C12.0054 10.8816 10.8815 12.0055 9.4999 12.0055Z" fill="#3C71FF"/>
</svg>
